<svg xmlns="http://www.w3.org/2000/svg" width="1000" height="1000" viewBox="0 0 1000 1000">
  <defs>
    <style>
      .cls-1 {
        fill-rule: evenodd;
      }
    </style>
  </defs>
  <path id="Rectangle_3_copy" data-name="Rectangle 3 copy" class="cls-1" d="M428.914,562.948L316.374,395.456,416.545,236.074H316.779L240.941,357.942V236.074H154.356V562.948h86.585v-124.3l82.733,124.3h105.24Zm417.231-187.77H678.45v64.685h74.824c-1.217,31.228-29.4,50.289-68.944,50.289-60.427,0-97.129-44.611-97.129-90.438,0-50.491,42.786-90.438,91.452-90.438,24.13,0,50.288,10.95,68.538,27.983l48.058-65.9c-26.97-24.941-75.027-42.583-116.6-43.191-101.388,0-180.065,78.474-180.065,171.751s78.474,170.737,182.3,170.737c92.871,0,167.9-64.28,167.9-163.64A217.265,217.265,0,0,0,846.145,375.178ZM133,671H867l36,100H97Zm33-73H834v33H166V598Zm66,27h40v54H232V625Zm497,0h40v53H729V625Z"/>
</svg>
