<svg xmlns="http://www.w3.org/2000/svg" width="1000" height="1000" viewBox="0 0 10000 10000">
  <defs>
    <style>
      .cls-1 {
        fill-rule: evenodd;
      }
    </style>
  </defs>
  <path class="cls-1" d="M674,4358Q673.5,5479,673,6600q2083.005-.495,4166-1,1.005-479.505,2-959-1603.5-.495-3207-1V5318q-264.165-263.835-528.02-527.73Q889.889,4574.165,674,4358Zm-1-801c228.331,226.46,513.77,509.32,677.8,677.2q73.65,75.375,147.09,148.91c45.43,45.49,90.53,90.18,136.11,134.89q0.495,319.5,1,639c-214.52-215.38-428.41-428.7-644.353-642.65Q831.832,4357,672.831,4200.5,672.915,3878.75,673,3557Zm-1-643q481.5,481.005,963,962-1.005,79.5-2,159Q1153,3555.5,673,3076,672.5,2995,672,2914Zm4656.5,478.5c1384,0,2768,0,4152,8v2208c6.67,5.33-10.67,22.67-17.92,9.92C9149,5305.33,8836,4991.67,8520.5,4672.5c0-104,0-208-1.65-318.35-179.91-4.09-367.94-.06-558.35-1.65-557.33,0-1114.67,0-1682.04,2.04C5960.18,4035.49,5640.56,3717.77,5328.5,3392.5ZM8525,5479l-2244.5,1.5c0,370.67,0,741.33-8,1112h0q-475.755,4.245-951.5,8.5-0.495-1041.495-1-2083H7563q245.58,246.93,491.56,492.08,232.065,231.27,464.48,460.96,0.975-312.525,1.96-625.04,320.685,316.32,641.35,632.65,159.075,156.915,318.15,313.85,3.255,323.745,6.5,647.5Q9005.995,5959.505,8525,5479Zm-1,641q0.495-79.995,1-160,480.495,480,961,960v159Z"/>
</svg>
